<?xml version="1.0" encoding="UTF-8" standalone="no"?>
<svg width="385px" height="622px" viewBox="0 0 385 622" version="1.1" xmlns="http://www.w3.org/2000/svg" xmlns:xlink="http://www.w3.org/1999/xlink">
    <!-- Generator: Sketch 42 (36781) - http://www.bohemiancoding.com/sketch -->
    <title>map</title>
    <desc>Created with Sketch.</desc>
    <defs></defs>
    <g id="Page-1" stroke="none" stroke-width="1" fill="none" fill-rule="evenodd">
        <g id="map" transform="translate(1.000000, 1.000000)" stroke="#27B0A8">
            <g id="cur" class="area" transform="translate(8.000000, 75.000000)">
                <path d="M39.5017658,11.7981856 C38.313702,10.6459697 38.2927142,8.7451925 39.4511415,7.55652556 L46.8154297,0 L83.5869141,35.7568359 L89.7392578,29.9306641 L95.0869141,35.4619141 L99.0410156,31.9306641 L95.4443359,29.7460938 L99.625,22.2294922 L114.493164,22.5556641 L128.342285,36.8383789 L128.03418,50.3085938 L132.6875,60.5654297 L133.371094,67.3261719 L140.100586,73.3681641 L148.996094,73.0410156 L155.395508,78.625 L162.69043,81.4824219 L166.329102,85.0449219 L161.72168,95.3369141 L162.538086,100.433594 L160.94043,105.822266 L162.033691,112.5 L166.989258,119.9375 L167.239258,127.076172 L172.964844,136.388672 L173.214844,143.44043 L155.125,147.839844 L155.210938,152.652344 L158.794922,153.25 L163.585937,167.145508 L163.857422,173.663086 L138.208008,173.663086 L124.777344,163.125 L66.6699219,161.87793 L42.4960938,179.919922 L37.8847656,184.694336 L25.9306641,214.297852 L0,211.701172 L18.6416016,141.516602 L30.4199219,148.634766 L34.2080078,148.72168 L37.3505859,145.875 L59.09375,145.875 L65.2597656,139.996094 L74.5166016,139.996094 L75.7109375,130.926758 L80.7529297,124.201172 L92.46875,123.701172 L65.96875,89.4755859 L63.375,89.3017578 L60.5722656,85.3925781 L55.1386719,89.5761719 L37.53125,68.4375 L46.4960938,63.7431641 L42.1728516,57.4091797 L64.0517578,35.6074219 L39.5017658,11.7981856 Z" fill-opacity="0" fill="#1B9B9B"></path>
                <circle r="6.5" id="oval1" fill="#27B0A8" opacity="0" cx="117.5" cy="92.5" rx="6.5" ry="6.5"></circle>
            </g>
            <g id="met" class="area" transform="translate(126.000000, 0.000000)">
                <path d="M219.124177,12.6209293 L219.089844,12.4892578 L218.845894,12.5925667 L143.430664,4.90625 L113.680664,30.5898437 L99.4794922,24.0488281 L103.173828,16.9091797 L92.8857422,0.163085937 L70.3642578,0 L69.4414062,2.79101562 L57.9199219,2.87792969 L57.6601563,11.4619141 L37.25,11.2773437 L31.5449219,18.3300781 L29.2226563,18.5029297 L23.8886719,15.6455078 L23.6386719,11.8535156 L28.9726563,10.84375 L29.0800781,7.88867187 L23.1289063,7.98632812 L19.6318359,2.94726562 L12.2255859,3.13183594 L5.63183594,5.63183594 L4.72949219,9.06542969 L10.6289063,15.53125 L9.95507813,21.4160156 L0,32.9472656 L0.184570313,40.2255859 L6.53125,46.1591797 L5.93457031,63.2119141 L12.5068359,69.9130859 L11.0830078,82.09375 L13.5273438,88.7324219 L3,104 L10.2504883,111.838379 L9.95507813,125.308594 L14.6875,135.56543 L15.3149414,142.326172 L22.1005859,148.368164 L30.9960938,148.041016 L37.3955078,153.625 L44.5380859,156.482422 L48.3291016,160.044922 L43.7216797,170.336914 L44.6904297,175.433594 L43.7348633,179.048828 L82.4755859,179.544922 L91.15625,184.183594 L91.0800781,178.711914 L93.5,177.5 L97.6601563,179.048828 L111.263672,178.625 L112,182.148926 L115.381836,186.399414 L116.413086,182.923828 L119.680664,184.041016 L120.625,188.743164 L143.666992,168.735352 L142.308594,166.961914 L142.635742,161.291016 L150.013672,141.024414 L153.194336,140.850586 L159.964844,117.47168 L166.0625,111.451172 L188.941406,105.65918 L197.753906,98.4443359 L225.621094,51.8154297 L226.294922,40.1210938 L219.204459,12.9288144 L219.777344,12.6875 L219.124177,12.6209293 Z" fill-opacity="0" fill="#1B9B9B"></path>
                <circle id="oval2" fill="#27B0A8" opacity="0" cx="97.5" cy="94.5" r="6.5"></circle>
            </g>
            <g id="tr" class="area" transform="translate(203.000000, 141.000000)">
                <path fill-opacity="0" fill="#1B9B9B" points="76.5 0 82.8779297 2.78125 85.9853516 0.009765625 99.1904297 0 101.50293 2.89941406 103.829102 0.551757813 119.958008 1.29101563 123.933594 14.2880859 153.277344 17.09375 152.777344 96.8886719 179.895508 120.319336 179.634766 125.353516 174.655273 132.069336 170.710938 131.982422 168.353516 136.110352 168.266602 157.982422 154.418945 153.103516 145.030273 152.919922 122.610352 160.864258 122.349609 171.96875 120.155273 177.766602 117.94043 178.777344 115.255859 178.277344 115.124023 173.94043 110.333008 167.270508 101.585938 172.964844 84.9814453 175.90918 69.6455078 175.985352 57.3740234 173.0625 56.1347656 177.072266 49.5410156 175.194336 45.4160156 174.694336 43.1552734 178.833008 27.1386719 178.87793 22.9433594 172.652344 23.5410156 165.447266 18.7705078 160.048828 8.56835938 159.777344 6 153.103516 7.5 134.5 0 124.930664 0.333007812 120.433594 7.64550781 116.794922 7.90527344 113.527344 23.8261719 106.87793 27.7558594 110.517578 39.2421875 103.975586 39 98.9306641 47.5654297 98.7841797 48.5654297 94.3642578 40.3603516 76.2919922 42.0029297 72.3125 40.4609375 68.1425781 40.5 65.3574219 70.8427734 42.2949219 81.5 38 80 32.5 71.5 27 66.5 28 65.5 25.5 65.5 20.5 73 0.009765625"></path>
                <circle id="oval3" fill="#27B0A8" opacity="0" cx="102.5" cy="107.5" r="6.5"></circle>
            </g>
            <g class="area" transform="translate(183.000000, 294.000000)">
                <path d="M28.5097656,6.82055664 L0,103.820557 L11,109.25 C11,109.25 20.9409878,133.164748 26,145.414307 C31.0590122,157.663866 37.2392578,171.751221 37.2392578,171.751221 C37.2392578,171.751221 46.4400516,190.317562 51.5,199.5 C56.5599484,208.682438 63,218.5 63,218.5 L112.572266,181.758057 L149.756836,147.748291 L149.756836,145.414307 L148.214844,143.265869 L162.145508,128.008057 L148.485352,115.835205 L139.388672,120.366455 L135.399414,116.085205 L130.860352,115.053955 L141.152344,100.848877 L147.881836,99.7619629 L154.555664,92.2414551 L154.46875,78.1164551 L161.53125,52.4182129 L161.520508,44.9465332 L169.15625,45.3039551 L172.166016,30.7971191 L171.134766,24.435791 L174.958008,18.4807129 L174.273438,14.0812988 L179.304687,9.94262695 L184.746094,12.4182129 L188.621094,11.9846191 L188.621094,5.38012695 L174.958008,0.314941406 L165.191895,-5.68434189e-14 L142.947266,7.79345703 L142.412354,18.842041 L140.178955,24.723877 L138.021729,25.6447754 L135.340332,25.0910645 L135.103516,20.9523926 L130.424561,14.4018555 L121.482422,20.0744629 L104.960938,22.9973145 L89.6972656,22.9846191 L77.3955078,20.0500488 L76.1142578,24.435791 L69.5205078,22.2062988 L65.3955078,21.7062988 L63.2148438,26.0568848 L47.1181641,26.0568848 L42.9589844,19.6643066 L43.5205078,12.4592285 L38.6728516,7.01196289 L28.5097656,6.82055664 Z" fill-opacity="0" fill="#1B9B9B"></path>
                <circle id="oval4" fill="#27B0A8" opacity="0" cx="75.5" cy="96.5" r="6.5"></circle>
            </g>
            <g class="area" transform="translate(24.000000, 293.000000)">
                <path d="M221.772461,219.600586 L195.353516,238.173828 L192.34668,238 L187.631836,244.256836 L196.81543,253.301758 L199.291016,260.09082 L198.888672,281.319336 L196.311523,293.285156 L188.686523,304.84082 L183.579102,309.979492 L175.62793,314.791992 L171.044922,319.604492 L174.746094,319.604492 L177.232422,317.378906 L182.759766,317.378906 L186.114258,320.55957 L183.919922,323.013672 L183.65918,326.923828 L124.576172,326.979492 L128.398438,322.732422 L128.148437,314.066406 L130.679687,311.024414 L135.239258,311.024414 L137.530273,306.614258 L137.34668,297.035156 L136.999023,293.701172 L139.943359,288.46582 L139.607422,280.732422 L132.822266,270.59082 L128.371094,268.375 L126.145508,260.15332 L117.433594,255.513672 L113.09668,270.628906 L111.65918,277.642578 L102.464844,273.785156 L107.832031,250.097656 L105.592773,248.354492 L104.583008,245.18457 L107.072266,242.944336 C107.072266,242.944336 105.592773,239.5 104.583008,237 C103.573242,234.5 102,235.5 102,235.5 L102,231.5 L100.5,231.5 L101,227 L103,225.5 L106.5,227 L107.5,222.5 L104.5,220.5 L100,204 L82,205 L74,210 L60,190 L67,181.5 L68,166 L58.5,161 L56,164 L52,159 L36.5,172 L27,161.5 L33.5,157 L0,118.5 L18,102.5 L18,97 L24.5,95 L27,89 L33.5,84.5 L39,78 L42,71.5 L72.5,72.5 L78,76.5 L85.5,76 L100.5,83.5 L108.5,83 L116,60 L126.5,48 L126.5,37.5 L156,0.5 L185,1 L187.5,8 L158.5,105 L170,110 L195,170.5 L209.5,198.5 L221.772461,219.600586 Z" fill-opacity="0" fill="#1B9B9B"></path>
                <circle id="oval5" fill="#27B0A8" opacity="0" cx="130.5" cy="169.5" r="6.5"></circle>
            </g>
            <g class="area" transform="translate(0.000000, 255.000000)">
                <path d="M8,31.7011719 L0,70 L10.5,73 L18,71 L33.5,70.5 L49,74.5 L51.5,76.5 L51,81.5 L54.5,81 L60,85.5 L68,98 L66,109 L96.5,110 L102,114 L109.5,113.5 L124.5,121 L132.5,120.5 L140,97.5 L150.5,85.5 L150.5,75 L180,38.5 L209,39 L210.5,20.5 L202.5,10.5 L192.5,10.5 L190,9 L188,11.5 L188,17.5 L181.5,23 L176.5,23 L170.5,18.5 L158,16.5 L150,10.5 L133,9.5 L129,12.5 L110.5,12 L104.5,17 L100.5,17 L96.5,22 L93.5,21.5 L90.5,17.5 L87,17.5 L82.5,22.5 L82,29.5 L80,32.5 L80,35 L84,39 L92.5,45 L87.5,50 L84,46.5 L75,42.5 L69.5,42.5 L69.5,23 L66.5,23 L66,20 L50.5,0 L45.8847656,4.69433594 L33.9306641,34.2978516 L8,31.7011719 Z" fill-opacity="0" fill="#1B9B9B"></path>
                <circle id="oval6" fill="#27B0A8" opacity="0" cx="112.5" cy="67.5" r="6.5"></circle>
            </g>
            <g class="area" transform="translate(50.000000, 168.000000)">
                <path d="M0.5,87 L16.5039063,107.59375 L17.0039063,110.09375 L20.0039063,110.09375 L20.0039063,129.59375 L25.5039063,129.59375 L34.5039063,133.59375 L38.0039063,137.09375 L43.0039063,132.09375 L34.5039063,126.141602 L30.5039062,122.09375 L30.5039063,119.59375 L32.5039063,116.59375 L33.0205078,109.59375 L37.5039063,104.645508 L41.0039063,104.59375 L44.0039063,108.59375 L47.0039063,109.09375 L51.0039063,104.09375 L55.0039062,104.09375 L61.0039063,99.09375 L79.5039063,99.59375 L83.5039063,96.59375 L100,97.5 L108,103.5 L120.503906,105.5 L126.5,110.09375 L131.71875,110 L138,104.59375 L138,98.5 L140,96 L142.5,97.5 L153.003906,97.59375 L153.336914,93.0966797 L160.649414,89.4580078 L160.90918,86.1904297 L176.830078,79.5410156 L180.759766,83.1806641 L192.246094,76.6386719 L192.003906,71.59375 L200.569336,71.59375 L201.569336,67.0273438 L193.364258,48.9550781 L195.006836,44.9755859 L193.503906,40.8056641 L193.503906,38.0205078 L223.84668,15.0175781 L234.5,11.1425781 L233,5.5 L224.5,0 L219.5,1 L196.5,21 L195.5,16 L192.5,15.0175781 L191.5,18.5 L188,14 L187.273254,11.4563904 C187.12234,10.9281906 186.543162,10.5228697 185.992786,10.550422 L174.164063,11.1425781 L170.003906,9.59375 L167.583984,10.8056641 L167.660156,16.2773438 L159.003906,11.59375 L120.225586,11.1425781 L119.444336,12.9160156 L120.503906,19.59375 L125.466309,27.03125 L125.493164,34.1699219 L131.46875,43.4824219 L131.71875,50.5341797 L113.714844,54.9335938 L113.628906,59.7460938 L117.298828,60.34375 L122.089844,74.2392578 L122.361328,80.7568359 L96.7119141,81.09375 L83,70 L24.5,69 L0.5,87 Z" fill-opacity="0" fill="#1B9B9B"></path>
                <circle id="oval7" fill="#27B0A8" opacity="0" cx="154.5" cy="55.5" r="6.5"></circle>
            </g>
        </g>
    </g>
</svg>